<?xml version="1.0" encoding="utf-8"?>
<!-- Generator: Adobe Illustrator 16.0.0, SVG Export Plug-In . SVG Version: 6.00 Build 0)  -->
<!DOCTYPE svg PUBLIC "-//W3C//DTD SVG 1.1//EN" "http://www.w3.org/Graphics/SVG/1.1/DTD/svg11.dtd">
<svg version="1.1" id="Calque_1" xmlns="http://www.w3.org/2000/svg" xmlns:xlink="http://www.w3.org/1999/xlink" x="0px" y="0px"
	 width="134.64px" height="134.64px" viewBox="0 0 134.64 134.64" enable-background="new 0 0 134.64 134.64" xml:space="preserve">
<g>
	<path fill="#00A89E" d="M125.385,5.525c-0.231-0.293-0.371-0.33-0.685-0.141c-1.246,0.768-2.525,1.481-3.763,2.262
		c-10.14,6.369-19.266,14.01-27.797,22.372c-8.762,8.577-16.741,17.821-24.15,27.55c-6.568-3.726-14.225-5.908-21.46-5.908
		c-23.16,0-40.009,15.793-40.009,37.484c0,22.001,16.428,38.111,39.06,38.111c11.37,0,23.895-5.793,32.113-14.74L64.584,97.457
		c-4.843,5.161-11.477,8.424-16.741,8.424c-8.845,0-15.264-6.525-15.264-16.423c0-9.79,6.419-16.845,15.264-16.845
		c4.621,0,9.852,2.604,14.026,6.791c1.684,1.951,3.367,3.898,5.05,5.846c0.165,0.189,0.404,0.338,0.438,0.631
		c0.388,0,0.767,0,1.155,0c0.017-0.07,0.025-0.145,0.058-0.206c3.688-7.459,7.566-15.45,11.79-22.62
		c6.956-11.795,14.777-22.979,23.614-33.445c6.609-7.817,13.713-15.152,21.263-22.059C126.251,6.623,126.227,6.627,125.385,5.525z"
		/>
</g>
</svg>
